<?xml version="1.0" encoding="UTF-8" standalone="no"?>
<!-- Created with Inkscape (http://www.inkscape.org/) -->

<svg
   width="210mm"
   height="297mm"
   viewBox="0 0 210 297"
   version="1.1"
   id="svg5"
   inkscape:version="1.1.2 (b8e25be833, 2022-02-05)"
   sodipodi:docname="icone_techstick.svg"
   xmlns:inkscape="http://www.inkscape.org/namespaces/inkscape"
   xmlns:sodipodi="http://sodipodi.sourceforge.net/DTD/sodipodi-0.dtd"
   xmlns:xlink="http://www.w3.org/1999/xlink"
   xmlns="http://www.w3.org/2000/svg"
   xmlns:svg="http://www.w3.org/2000/svg">
  <sodipodi:namedview
     id="namedview7"
     pagecolor="#ffffff"
     bordercolor="#000000"
     borderopacity="0.25"
     inkscape:showpageshadow="2"
     inkscape:pageopacity="0.0"
     inkscape:pagecheckerboard="0"
     inkscape:deskcolor="#d1d1d1"
     inkscape:document-units="mm"
     showgrid="false"
     inkscape:zoom="0.45254834"
     inkscape:cx="390.01358"
     inkscape:cy="525.91067"
     inkscape:window-width="1600"
     inkscape:window-height="837"
     inkscape:window-x="-8"
     inkscape:window-y="-8"
     inkscape:window-maximized="1"
     inkscape:current-layer="layer1"
     inkscape:pageshadow="2" />
  <defs
     id="defs2">
    <inkscape:perspective
       sodipodi:type="inkscape:persp3d"
       inkscape:vp_x="872.04447 : -101.91278 : 1"
       inkscape:vp_y="0 : 1000 : 0"
       inkscape:vp_z="1082.0445 : -101.91278 : 1"
       inkscape:persp3d-origin="977.04447 : -151.41278 : 1"
       id="perspective3196" />
    <linearGradient
       inkscape:collect="always"
       xlink:href="#linearGradient5071"
       id="linearGradient13080"
       x1="20.980553"
       y1="147.81566"
       x2="200.88983"
       y2="147.81566"
       gradientUnits="userSpaceOnUse"
       gradientTransform="matrix(0.99034184,0,0,0.9480369,-5.4341727,-12.59682)" />
    <linearGradient
       id="linearGradient13078"
       inkscape:swatch="solid">
      <stop
         style="stop-color:#3fad92;stop-opacity:0.56078434;"
         offset="0"
         id="stop13076" />
    </linearGradient>
    <linearGradient
       id="linearGradient5071"
       inkscape:swatch="solid">
      <stop
         style="stop-color:#000000;stop-opacity:1;"
         offset="0"
         id="stop5069" />
    </linearGradient>
    <linearGradient
       inkscape:collect="always"
       xlink:href="#linearGradient5071"
       id="linearGradient2155"
       gradientUnits="userSpaceOnUse"
       gradientTransform="matrix(1.0253219,0,0,1.0253219,-12.44338,-25.433557)"
       x1="52.656006"
       y1="132.52383"
       x2="115.64641"
       y2="132.52383" />
    <linearGradient
       inkscape:collect="always"
       xlink:href="#linearGradient5071"
       id="linearGradient2159"
       gradientUnits="userSpaceOnUse"
       gradientTransform="matrix(0.98984272,0,0,0.98984272,-20.854057,-22.796503)"
       x1="123.6432"
       y1="164.46954"
       x2="182.32925"
       y2="164.46954" />
    <clipPath
       clipPathUnits="userSpaceOnUse"
       id="clipPath288">
      <path
         id="path290"
         style="fill:#ff0000;fill-opacity:1;fill-rule:nonzero;stroke:none;stroke-width:0.264583"
         d="m -102.10126,41.559221 c -1.65964,5.504862 -8.04439,10.299112 -19.19056,10.299112 -2.1377,0 -3.02426,-0.0097 -4.15789,-0.05064 0.22371,0.23744 0.42868,0.484193 0.62529,0.734841 2.8516,0.333716 5.70279,0.671481 8.55451,1.004073 16.389339,1.883074 32.758052,3.937108 49.117938,6.058029 25.97499,3.367432 22.57248,29.607172 -3.402378,26.238708 -6.67902,-0.866148 -13.360979,-1.709854 -20.043738,-2.546098 -0.37334,1.079637 -0.766741,2.153827 -1.118793,3.220473 -1.471943,4.459635 -3.121192,8.280186 -4.924248,12.0742 0.85766,0.917215 1.501344,1.953101 1.845366,3.130551 0.594357,2.03429 0.894482,4.15593 0.977201,6.30556 4.675251,0.74627 9.351637,1.50928 14.039453,2.32699 5.284989,0.92189 10.596632,1.73398 15.821255,2.95228 7.715642,1.79913 16.950532,4.57288 23.944792,8.62221 2.44217,1.41389 4.612481,3.24248 6.832142,4.99556 V 41.559221 Z m -116.63784,26.91257 c -0.0864,0.0057 -0.1697,0.0058 -0.25632,0.01188 0.0674,0.0033 0.13469,0.0066 0.20206,0.0098 0.0192,-0.008 0.035,-0.01373 0.0543,-0.0217 z m 79.55276,9.262483 c 1.76831,1.893506 3.03925,4.477099 5.13922,6.006867 2.06171,1.50186 -2.62693,-4.701548 -4.88238,-5.892662 -0.0842,-0.04448 -0.17053,-0.07962 -0.25684,-0.114205 z m 27.4774,2.987931 c -2.01908,0.817211 -4.03607,1.641544 -6.01927,2.541448 -4.72518,2.144027 -9.25617,4.579448 -13.75214,7.120493 4.73495,0.180247 9.46626,0.46945 14.20017,0.679029 1.20817,0.285237 2.96208,0.60507 4.92321,1.006658 0.37367,-0.767131 1.02525,-2.07984 1.14567,-2.348693 0.76133,-1.69989 2.19463,-5.100336 3.38739,-8.542634 -1.29468,-0.154744 -2.59012,-0.303446 -3.88503,-0.456301 z m 45.725886,59.303875 c 14.805623,17.05144 11.078692,22.10752 -0.03152,24.81916 -3.369596,0.82235 -6.780051,1.46452 -10.182323,2.1425 0.23441,0.69204 0.472723,1.38365 0.710552,2.07533 0.915567,-0.12914 1.807006,-0.23172 2.625677,-0.26252 2.440853,-0.0918 4.868717,0.40369 7.302913,0.60565 0.536903,1.12305 1.147905,2.22476 1.783355,3.31917 3.208038,-2.56354 6.221439,-5.35345 8.879046,-8.51937 1.068925,-1.25227 2.218878,-2.43993 3.207039,-3.75688 1.786212,-2.38052 2.174142,-3.43161 3.285588,-5.99705 0.216183,-0.49901 1.164124,-2.60274 1.121894,-3.2954 -0.04585,-0.75214 -0.414002,-1.44901 -0.621152,-2.17352 -1.087858,-1.02032 -2.003081,-2.26395 -3.263881,-3.06079 -4.230886,-2.67399 -9.82381,-4.57753 -14.817186,-5.89628 z m -156.431796,30.06431 v 29.01167 c 5.94127,-1.14248 11.9119,-2.10584 17.9002,-2.94762 -2.58603,-7.51 -8.00737,-15.02227 -5.97483,-22.52835 0.38503,-1.42188 1.2936,-2.40775 2.50011,-3.13934 -3.8936,-0.10587 -7.69733,-0.21067 -11.87525,-0.32453 -0.91277,-0.0285 -1.68236,-0.0472 -2.55023,-0.0718 z m 189.23393,9.28367 c -0.326038,0.42323 -0.584988,0.74754 -0.93586,1.21182 -4.08577,4.94727 -8.758507,9.29971 -13.764019,13.26379 5.686629,-0.69237 10.179944,2.1311 14.699879,14.05909 z m 0,35.58078 c -1.477674,2.04723 -3.976229,3.96022 -5.452898,5.86734 -0.230817,0.2981 -2.816209,2.81524 -5.515941,5.42603 0.03375,0.0121 0.06773,0.0237 0.101285,0.0362 3.491191,-1.78219 7.153521,-3.26996 10.867554,-3.10524 z m -136.69657,4.11758 c -17.00959,1.31621 -33.98759,3.22624 -50.71576,6.6182 -0.5831,0.11823 -1.21402,0.25927 -1.8216,0.38912 v 13.31547 c 0.79923,-0.15498 1.972,-0.38208 2.2934,-0.44649 1.79981,-0.33133 3.60106,-0.65264 5.40122,-0.98133 0.77686,-1.43004 1.62757,-2.81331 2.55334,-4.13153 -1.30222,0.14764 -2.16023,0.12058 -1.63763,-0.73794 0.67497,-1.10883 1.88293,-1.40208 3.2675,-1.42524 0.47485,-0.58676 0.95984,-1.16292 1.46503,-1.71617 4.32722,-4.73896 12.30251,-3.66084 18.48776,-5.37125 6.20316,-1.71536 13.40619,-3.61392 20.70674,-5.51284 z m 118.788618,10.93111 c -0.102251,0.005 -0.208637,0.0228 -0.309541,0.0238 0.06569,0.0112 0.136657,0.0621 0.196887,0.0336 0.03809,-0.018 0.07467,-0.0391 0.112654,-0.0574 z m 2.760038,0.27182 c -0.807879,0.77617 -2.380422,2.29106 -2.462898,2.3704 1.124358,-0.96708 2.074603,-1.70149 2.862358,-2.07894 -0.133149,-0.0972 -0.266311,-0.1943 -0.39946,-0.29146 z m 13.768152,12.35015 c 0.07714,0.59701 0.151053,1.19417 0.236678,1.79007 0.05009,0.34859 0.320458,-0.73812 0.149346,-1.04593 -0.134585,-0.2421 -0.25673,-0.49669 -0.386024,-0.74414 z m -69.393178,6.52673 c -0.48348,0.18694 -0.96418,0.38022 -1.44798,0.56638 0.54956,-0.0349 1.00506,-0.0629 1.63918,-0.10284 -0.0638,-0.1545 -0.12708,-0.30917 -0.1912,-0.46354 z m 70.77294,28.69903 c -2.249466,0.45395 -4.498263,0.91117 -6.747393,1.36684 -2.289307,0.46577 -4.580943,0.91818 -6.870899,1.38028 -0.505272,2.73023 1.23276,5.0057 7.273976,6.20995 0.164044,0.0327 0.655529,0.0609 0.492477,0.0982 -1.179037,0.2699 -2.383224,0.41709 -3.577559,0.60822 -2.339205,0.37439 -4.681916,0.72478 -7.022827,1.08831 -4.503957,0.69948 -9.00471,1.42193 -13.511837,2.10064 -1.421514,0.21407 -2.844099,0.4209 -4.26589,0.63304 -0.132194,0.0735 -0.261623,0.15182 -0.393774,0.22532 8.844414,7.63638 3.665931,21.77328 -15.494662,21.69636 -12.689713,-0.051 -6.001419,0.0314 -20.064412,-0.28577 -11.89135,-0.4807 -16.75489,-0.59138 -29.01373,-1.47434 -25.73068,-1.85333 -51.34704,-5.14117 -76.65527,-10.1818 -4.45447,-1.04008 -8.93027,-1.99409 -13.38213,-3.04427 v 21.34031 h 189.23393 z" />
    </clipPath>
    <clipPath
       clipPathUnits="userSpaceOnUse"
       id="clipPath374">
      <path
         id="path376"
         style="fill:#ff0000;fill-opacity:1;fill-rule:nonzero;stroke:none;stroke-width:0.264583"
         d="m -352.0892,44.769793 c 26.81965,10.509776 30.61508,32.569759 17.74866,44.024022 8.05603,1.693675 16.11473,3.3752 24.18032,5.022379 l 7.35588,-39.978099 z M -472.30511,149.877 l -2.99403,16.27209 52.52738,9.66492 c -2.27866,-4.08167 -3.7954,-8.47632 -4.9131,-13.03481 -9.19677,-2.60612 -18.30159,-5.16875 -26.92271,-7.61191 -5.83548,-1.96692 -11.75149,-3.67619 -17.69754,-5.29029 z m 71.01771,22.69472 c -0.84017,0.10266 -1.67716,0.22489 -2.50273,0.40859 -0.27432,0.0611 0.4586,0.55855 0.71611,0.44597 0.60528,-0.26463 1.19774,-0.55595 1.78662,-0.85456 z" />
    </clipPath>
  </defs>
  <g
     inkscape:label="Camada 1"
     inkscape:groupmode="layer"
     id="layer1">
    <path
       id="rect97-8"
       style="opacity:0.93;fill:#32c2b9;fill-opacity:1;stroke:url(#linearGradient13080);stroke-width:2;stroke-opacity:1;stroke-dasharray:none"
       d="m 54.105541,36.710026 c -21.343382,0 -38.526133,16.288523 -38.526133,36.52176 V 181.84356 c 0,20.23325 17.182751,36.52227 38.526133,36.52227 h 81.308139 l 57.86604,-57.7246 V 73.231786 c 0,-20.233237 -17.18275,-36.52176 -38.52613,-36.52176 z" />
    <g
       aria-label="S"
       transform="scale(1.0015464,0.99845599)"
       id="text1206-5"
       style="font-size:103.918px;line-height:1.25;font-family:Bungee;-inkscape-font-specification:'Bungee, Normal';fill:#fad928;stroke:url(#linearGradient2159);stroke-width:2.59796">
      <path
         d="m 138.11241,177.41284 c 13.40542,0 21.51102,-6.44291 21.51102,-18.28957 v -10.91139 c 0,-11.63881 -6.44291,-15.79553 -16.21121,-17.25038 l -15.48378,-2.07836 c -1.7666,-0.20784 -2.80578,-1.45486 -2.80578,-3.32538 0,-1.87052 1.03918,-3.11754 2.80578,-3.11754 h 24.2129 c 2.59795,0 3.74104,-1.1431 3.74104,-3.74105 v -12.36624 c 0,-2.59795 -1.14309,-3.74105 -3.74104,-3.74105 H 123.0443 c -13.50934,0 -21.51103,6.44292 -21.51103,18.28957 v 10.91139 c 0,11.63882 6.339,15.79554 16.10729,17.25039 l 15.5877,2.18228 c 1.76661,0.20783 2.70187,1.14309 2.70187,3.53321 0,1.66269 -0.93526,3.01362 -2.70187,3.01362 h -27.95394 c -2.59795,0 -3.74105,1.1431 -3.74105,3.74105 v 12.1584 c 0,2.59795 1.1431,3.74105 3.74105,3.74105 z"
         id="path161" />
    </g>
    <g
       aria-label="T"
       transform="scale(0.96727739,1.0338296)"
       id="text1206"
       style="font-weight:bold;font-size:107.642px;line-height:1.25;font-family:'Sitka Small';-inkscape-font-specification:'Sitka Small, Bold';fill:#fad928;stroke:url(#linearGradient2155);stroke-width:2.691">
      <path
         d="m 82.557583,149.19728 c 2.69105,0 3.875112,-1.18406 3.875112,-3.87511 V 92.469948 h 15.823375 c 2.69105,0 3.87511,-1.184062 3.87511,-3.875112 V 75.570154 c 0,-2.69105 -1.18406,-3.875112 -3.87511,-3.875112 H 45.421093 c -2.69105,0 -3.875112,1.184062 -3.875112,3.875112 v 13.024682 c 0,2.69105 1.184062,3.875112 3.875112,3.875112 h 15.823374 v 52.852222 c 0,2.69105 1.184062,3.87511 3.875112,3.87511 z"
         style="font-weight:normal;font-family:Bungee;-inkscape-font-specification:Bungee"
         id="path164" />
    </g>
    <path
       id="rect3307"
       style="fill:#00686c;fill-opacity:1;stroke:#000000;stroke-width:3;stroke-dasharray:none;stroke-opacity:1"
       d="m 137.12613,215.0009 52.58577,-53.18378 -33.18016,3.34991 c -13.28529,1.3413 -22.92504,13.3613 -21.61373,26.95056 z" />
    <path
       id="path3471"
       style="fill:#ffff00;fill-opacity:1;stroke-width:0.264583"
       d="m -152.51632,105.60563 c -0.1837,0.80575 -0.34652,1.61559 -0.48834,2.42879 -0.2007,1.25258 -0.35153,2.51178 -0.45217,3.77496 -0.1006,1.26334 -0.15093,2.52979 -0.15089,3.79667 -3e-5,1.26671 0.0503,2.53298 0.15089,3.79615 0.10063,1.26336 -60.55164,-79.081432 -60.35093,-77.828683 0.20072,1.252742 61.25428,84.102143 61.55396,85.337273 0.29972,1.23501 0.64843,2.45905 1.04541,3.66954 0.39691,1.2105 0.84181,2.40661 1.33377,3.58583 0.49196,1.17918 1.03064,2.34065 1.61489,3.48195 0.58417,1.14139 -168.39514,-3.33845 1.88671,3.35897 0.67335,1.09711 1.39008,2.17015 2.1487,3.21686 0.75865,1.04666 1.55864,2.06626 2.39831,3.05666 0.8395,0.99054 84.122302,30.75265 15.43459,13.28046 0.91595,0.92856 -10.93216,-8.57596 -9.94501,-7.71439 0.98723,0.86175 2.00838,1.68847 3.06131,2.4784 1.05287,0.78974 2.13676,1.54216 3.24942,2.25568 1.11262,0.71373 61.456245,161.39623 62.62245,162.02974 1.166166,0.63337 -56.84592,-158.78268 -55.6327,-158.23307 1.2133,0.54967 2.44802,1.05645 3.70159,1.51928 1.25348,0.4628 2.52492,0.88133 3.81165,1.25471 1.28686,0.37344 2.58812,0.70147 3.90105,0.9834 1.31275,0.28193 2.63625,0.51756 3.96772,0.70642 1.33163,0.18879 2.67029,0.33065 4.01319,0.42529 1.34296,0.0947 69.092594,76.94602 70.439317,76.94603 1.346549,-3e-5 -63.710761,-76.85135 -62.367978,-76.94603 1.342899,-0.0946 2.681565,-0.2365 4.01319,-0.42529 1.331473,-0.18886 2.654972,-0.42449 3.967721,-0.70642 0.934581,-0.21058 1.863021,-0.44458 2.784327,-0.70177 L -112.8056,127.94548 c -10.23318,-13.33444 14.469659,-22.33985 -2.33884,-22.33985 z"
       sodipodi:nodetypes="ccccssccscccccccccssssccsccccssc"
       clip-path="url(#clipPath288)" />
    <path
       sodipodi:type="star"
       style="fill:#00ff00;fill-opacity:1;stroke-width:0.264583"
       id="path3309"
       inkscape:flatsided="true"
       sodipodi:sides="3"
       sodipodi:cx="-384.81964"
       sodipodi:cy="126.40645"
       sodipodi:r1="87.384087"
       sodipodi:r2="70.681465"
       sodipodi:arg1="0.8695364"
       sodipodi:arg2="1.916734"
       inkscape:rounded="0"
       inkscape:randomized="0"
       d="M -328.4411,193.1705 -470.82828,141.84967 -355.18954,44.199175 Z"
       inkscape:transform-center-x="16.995937"
       inkscape:transform-center-y="-18.411173"
       transform="rotate(-10.425683,-815.36543,1461.5997)"
       clip-path="url(#clipPath374)" />
  </g>
</svg>
